<svg height="479pt" viewBox="0 -24 479.18185 479" width="479pt" xmlns="http://www.w3.org/2000/svg"><path d="m475.625 116.84375c-14.167969-70.21875-64.882812-115.589844-129.210938-115.589844-33.984374 0-70.800781 13.1875-106.785156 38.207032-36.484375-26.128907-72.625-39.3710942-107.5-39.3710942-64.6875 0-115.1875 45.8671872-128.644531 116.8320312-19.742187 102.894531 42.886719 239.476563 227.320313 312.65625.140624.054687.28125.105469.421874.152344 5.359376 2.097656 11.3125 2.097656 16.671876 0 .160156-.054688.320312-.113281.476562-.175781 84.628906-34.285157 150.265625-84.539063 189.820312-145.324219 34.730469-53.375 48.023438-112.800781 37.441407-167.328125zm-50.839844 158.660156c-37.71875 57.96875-100.710937 106.070313-182.167968 139.121094-.988282.34375-2.015626.574219-3.054688.679688-1.050781-.109376-2.085938-.339844-3.082031-.6875-175.753907-69.820313-235.773438-198.296876-217.277344-294.699219 5.941406-31.339844 19.722656-57.625 39.851563-76.011719 19.917968-18.203125 45.1875-27.816406 73.074218-27.816406 32.851563 0 67.386719 13.339844 102.648438 39.644531 2.808594 2.09375 6.648437 2.117187 9.484375.0625 34.742187-25.214844 70.066406-38.542969 102.152343-38.542969 27.816407 0 53.121094 9.574219 73.179688 27.699219 20.15625 18.210937 34.109375 44.160156 40.339844 75.03125 9.78125 50.421875-2.703125 105.648437-35.148438 155.519531zm0 0"/><path d="m332.332031 136.695312h-41.757812v-5.871093c-.003907-13.863281-11.234375-25.109375-25.101563-25.128907h-51.800781c-13.863281.019532-25.097656 11.265626-25.097656 25.128907v5.871093h-41.761719c-13.625 0-24.238281 11.308594-24.238281 25.382813v118.488281c0 14.078125 10.613281 25.128906 24.238281 25.128906h185.519531c13.625 0 24.242188-11.050781 24.242188-25.128906v-118.488281c0-14.074219-10.617188-25.382813-24.242188-25.382813zm-127.757812-5.871093c-.007813-5.03125 4.066406-9.117188 9.097656-9.128907h51.800781c5.035156.011719 9.105469 4.097657 9.101563 9.128907v5.871093h-70zm127.757812 158.871093h-185.519531c-4.800781 0-8.238281-3.875-8.238281-9.128906v-34.53125c2.585937 1.160156 5.402343 1.730469 8.238281 1.660156h185.519531c2.835938.070313 5.652344-.496093 8.242188-1.660156v34.53125c0 5.253906-3.4375 9.128906-8.242188 9.128906zm8.242188-67.542968c0 5.253906-3.4375 9.542968-8.242188 9.542968h-185.519531c-4.800781 0-8.238281-4.289062-8.238281-9.542968v-60.074219c0-5.253906 3.433593-9.382813 8.238281-9.382813h185.519531c4.800781 0 8.242188 4.128907 8.242188 9.382813zm0 0"/><path d="m255.574219 182.695312h-32c-4.421875 0-8 3.582032-8 8 0 4.417969 3.578125 8 8 8h32c4.417969 0 8-3.582031 8-8 0-4.417968-3.582031-8-8-8zm0 0"/></svg>